<?xml version="1.0" ?>
<!-- Uploaded to: SVG Repo, www.svgrepo.com, Generator: SVG Repo Mixer Tools -->
<svg width="800px" height="800px" viewBox="0 0 512 512" id="Layer_1" version="1.1" xml:space="preserve" xmlns="http://www.w3.org/2000/svg" xmlns:xlink="http://www.w3.org/1999/xlink">
<style type="text/css">
	.st0{fill:#4CC3F2;}
	.st1{fill:#0A557F;}
	.st2{fill:#CFF1FF;}
	.st3{fill:#FFFFFF;}
</style>
<g>
<path class="st0" d="M459.1,332.3c-23.5,0-42.6-19.1-42.6-42.6v-27.6l-157.2,0v-15l135.7,0L382,202.2H195.7l-4.3,14.9h131.9v15   H187.1l-4.3,14.9h31.5v15h-79c-12.6,0-24.3,5.4-32.5,14.9l0,5.5h44.9c12.4,0,22.5,10.1,22.5,22.5s-10.1,22.5-22.5,22.5h-44.9l0,5.5   c8.2,9.5,19.9,14.9,32.5,14.9l307.6,0c13.3,0,25.1-6.1,33-15.5H459.1z M220.7,317.3c-6.8,0-12.3-5.5-12.3-12.3   c0-6.8,5.5-12.3,12.3-12.3S233,298.2,233,305C233,311.8,227.5,317.3,220.7,317.3z M298.5,317.3c-6.8,0-12.3-5.5-12.3-12.3   c0-6.8,5.5-12.3,12.3-12.3c6.8,0,12.3,5.5,12.3,12.3C310.9,311.8,305.4,317.3,298.5,317.3z M376.4,317.3c-6.8,0-12.3-5.5-12.3-12.3   c0-6.8,5.5-12.3,12.3-12.3s12.3,5.5,12.3,12.3C388.8,311.8,383.2,317.3,376.4,317.3z"/>
<g>
<rect class="st1" height="15" width="67.3" x="260.3" y="392.9"/>
<rect class="st1" height="15" width="15" x="230.3" y="392.9"/>
<rect class="st1" height="15" width="67.3" x="76.6" y="157.2"/>
<rect class="st1" height="15" width="15" x="46.6" y="157.2"/>
</g>
<polygon class="st2" points="87.7,327.1 72.2,325.1 72.2,284.9 87.8,282.8  "/>
<polygon class="st2" points="245.9,172.2 331.8,172.2 336.1,187.2 241.6,187.2  "/>
<path class="st2" d="M102.7,297.5h44.9c4.1,0,7.5,3.4,7.5,7.5c0,4.1-3.4,7.5-7.5,7.5h-44.9L102.7,297.5z"/>
<path class="st1" d="M376.4,277.6c-15.1,0-27.3,12.3-27.3,27.3s12.3,27.3,27.3,27.3s27.3-12.3,27.3-27.3S391.5,277.6,376.4,277.6z    M376.4,317.3c-6.8,0-12.3-5.5-12.3-12.3c0-6.8,5.5-12.3,12.3-12.3s12.3,5.5,12.3,12.3C388.8,311.8,383.2,317.3,376.4,317.3z"/>
<path class="st1" d="M298.5,277.6c-15.1,0-27.3,12.3-27.3,27.3s12.3,27.3,27.3,27.3c15.1,0,27.3-12.3,27.3-27.3   S313.6,277.6,298.5,277.6z M298.5,317.3c-6.8,0-12.3-5.5-12.3-12.3c0-6.8,5.5-12.3,12.3-12.3c6.8,0,12.3,5.5,12.3,12.3   C310.9,311.8,305.4,317.3,298.5,317.3z"/>
<path class="st1" d="M220.7,277.6c-15.1,0-27.3,12.3-27.3,27.3s12.3,27.3,27.3,27.3S248,320.1,248,305S235.8,277.6,220.7,277.6z    M220.7,317.3c-6.8,0-12.3-5.5-12.3-12.3c0-6.8,5.5-12.3,12.3-12.3S233,298.2,233,305C233,311.8,227.5,317.3,220.7,317.3z"/>
<rect class="st3" height="15" width="15" x="338.3" y="217.1"/>
<rect class="st3" height="15" width="15" x="229.2" y="247.1"/>
<path class="st1" d="M442.8,247.1h-32.3l-17.3-59.9h-41.5l-8.6-29.9h-46.8v-45.6h-87.6v-7.5h-15v30h15v-7.5h72.6v30.6h-46.8   l-8.6,29.9h-41.5l-17.3,59.9h-31.9c-17.1,0-32.9,7.3-43.9,20.2l-34.1,4.4v25.8H45.5v-19.2h-15v19.2H11.3v15h19.2v19.2h15v-19.2   h11.7v25.8l34.1,4.4c11,12.9,26.9,20.2,43.9,20.2l307.6,0c31.9,0,57.9-26,57.9-57.9C500.7,273.1,474.8,247.1,442.8,247.1z    M87.7,327.1l-15.5-2v-40.2l15.5-2L87.7,327.1z M245.9,172.2h85.9l4.3,14.9h-94.6L245.9,172.2z M102.8,297.5h44.9   c4.1,0,7.5,3.4,7.5,7.5s-3.4,7.5-7.5,7.5h-44.9L102.8,297.5z M442.8,347.9l-307.6,0c-12.6,0-24.3-5.4-32.5-14.9l0-5.5h44.9   c12.4,0,22.5-10.1,22.5-22.5s-10.1-22.5-22.5-22.5h-44.9l0-5.5c8.2-9.5,19.9-14.9,32.5-14.9h79v-15h-31.5l4.3-14.9h136.2v-15H191.4   l4.3-14.9H382l12.9,44.9l-135.7,0v15l157.2,0v27.6c0,23.5,19.1,42.6,42.6,42.6h16.8C468,341.8,456.1,347.9,442.8,347.9z    M459.1,317.3c-15.2,0-27.6-12.4-27.6-27.6v-27.6h11.4c23.6,0,42.9,19.2,42.9,42.9c0,4.3-0.6,8.4-1.8,12.3H459.1z"/>
</g>
</svg>